<svg xmlns="http://www.w3.org/2000/svg" width="24" height="24" viewBox="0 0 24 24" fill="none" stroke="#9b72cf" stroke-width="2" stroke-linecap="round" stroke-linejoin="round">
  <path d="M8.37 12.37h0c-1.17.3-2.37-.5-2.67-1.67-.29-1.17.5-2.38 1.67-2.67h0a1.21 1.21 0 0 1 .91.21 1.25 1.25 0 0 0 1.57-.18l2.83-2.83a1.79 1.79 0 0 1 2.53 0c.7.7.7 1.83 0 2.53l-.62.61a1.5 1.5 0 0 0-.43 1.06v0c0 .9.73 1.63 1.63 1.63h0c1.37 0 2.47 1.1 2.47 2.46v0c0 1.25-.92 2.25-2.17 2.42"></path>
  <path d="M17.92 12.62a2 2 0 0 0-.24 0 2 2 0 0 0-2 1.68 1 1 0 0 1-.94.92h-.76a1 1 0 0 0-.92.92 1 1 0 0 1-.49.87 1 1 0 0 0-.37.33l-.3.39a1 1 0 0 1-1.4.12l-1-1a1 1 0 0 0-1.36 0l-.3.35a1 1 0 0 1-1.45.04l-.43-.51a1 1 0 0 0-.72-.34h0a3 3 0 0 0-2.52 1.33L2 20"></path>
  <path d="M22 9s0-6-7-6h-.5"></path>
  <path d="M16 7v.02"></path>
  <path d="M13 5v.02"></path>
  <path d="M10 7v.02"></path>
</svg>